<?xml version="1.0" encoding="UTF-8"?><svg id="Layer_2" xmlns="http://www.w3.org/2000/svg" viewBox="0 0 150.55 229.69"><defs><style>.cls-1{fill:#fff;}</style></defs><g id="object"><path class="cls-1" d="m148.41,76.05c.08-1.13.05-2.11-1.52-1.29-.52-.02-.8-.29-.82-.82.04-.1.04-.2-.03-.29-.69-.51,1.21-.93.05-1.45h0c-.76-.5.07-1.3-.36-1.86h0c0-.51,0-1.02.01-1.53-.14-.99-1.34-1.73-.72-2.91.42-.18.85-.37,1.35-.59-.6-.26-1.4-.04-1.43-.93.13-.55.21-1.08-.64-1.02h0c-.24-.01-.47-.03-.71-.04-.2-1.02-.4-2.04-1.83-1.79-.24-.15-.49-.29-.73-.44-.18-.4-.88-.37-.82-.98h0c.28-1.26-.8-1.5-1.5-2.03-.35-.07-.7-.14-1.05-.2-.57-.38-.3-1.53-1.35-1.47-.97.06-.85-.6-.81-1.22.02-.34.68-.7-.02-1.03-.02-.26-.05-.51-.07-.77.33-.65,1.17-.96,1.17-1.82.42-.16.76-.42.71-.91-.07-.7.17-.96.89-.95,1.92,0,1.32-.9.61-1.81-.29-.36-.14-.75-.08-1.13.14-.13.28-.26.43-.39.65.05,1.41.24,1.07-.9-.26-.9.07-1.58.95-2.06-.62-.37-1.44-.22-1.68-1,0-.78.67-1.11,1.08-1.62.22-.27,1.02-.19.63-.84-.29-.48-.78-.06-1.17-.09-.46-.03-.42.82-1.05.54-.22-.52.24-1.18-.25-1.68h0c.32-1.22-.39-1.54-1.4-1.6h0c-.35-.76-.91-1.14-1.77-.96-.16-.37-.32-.74-.48-1.11-.1-1.02.89-.58,1.48-1.06-.6-.03-1-.05-1.4-.07.25-1.79-1.1-2.28-2.32-2.88.28-.35.55-.7.92-1.16-1.01.05-1.86.1-2.71.14-.11-.07-.22-.09-.34-.04-.83.03-1.24-.34-1.15-1.19.05-.1.07-.2.08-.31.75-1.31.21-2.11-1.48-2.18-1.01.03-.42-1.57-1.49-1.47-.45.09-.9.17-1.34.26-.83-1.06-.29-2.16-.07-3.24.11-.01.21-.04.31-.09.87-1.1-.75-1.32-.74-2.12.02-.49-.69-.27-.72-.72.12-.39.23-.77.35-1.16,0,0,0,0,0,0t0,0c-.38-.57-.85-1.23-.98-1.77-.33-1.37-.88-.91-1.58-.48t0,0c-.47-.11-.95-.21-1.42-.32-.04-.29,0-.62-.38-.73-.4-1.01-.94-.14-1.04.06-.72,1.48-1.33.72-1.98-.02.05-1.78-1.69-1.2-2.47-1.88h0c-.23-.31-.48-.46-.76-.05h0c-.13.05-.26.1-.4.15h0c-.96-.3-1.92-.79-2.87.02-.25-.04-.5-.07-.75-.11h0c-.36-.48-1.03-.47-1.32-.27-1.28.89-2.29-.46-3.52-.31-.81.1-.8-.82-.57-1.53.14-.45,1.14-.33.76-.97-.37-.62-1.06-.24-1.62-.14-.24-.04-.48-.08-.72-.12-.19-2.29-1.21-.49-1.88-.38h0c-.62-.24-.1-1.04-.75-1.4-.62.67-1.32,1.11-2.03.25-.03-.08-.07-.15-.14-.19,0,0,0,0,0,0h0c-.53.07-.88-.59-1.44-.35-.26,0-.51,0-.77,0-.47-.03-.94-.06-1.41-.1-.12-.77.17-1.97-1.34-1.24,0,0,0,0,0,0-.28-.9-1.07-.45-1.63-.62,0,0,0,0,0,0,0-.55.03-1.24-.64-1.3-.74-.07-.28.78-.57,1.09-.15.15-.4.2-.61.3-.24-.01-.49-.03-.73-.04l-.84-1.09c.02-.54-.01-1.58-.21-1.48-1.24.58-1.18-1.01-1.97-1.03h0c-.22-.03-.45-.07-.67-.1-1.17-.73-2.47-.13-3.68-.36-.41-.46-.81-.91-1.14-1.28-.67,1.13-1.26,2.11-1.85,3.1h0c-.47.06-.95.23-1.42-.03-.37-.5-1.04-.3-1.48-.64-.84-1.21-.92.47-1.46.39-.37-.03-.73-.06-1.09-.09l-.34-.36c-.16-.64-.27-1.41-.96-1.62-.5-.15-.88.31-.93.89-1.05.34-3.23-.82-2.51,1.88-.09.22-.17.44-.26.67-.1.44-.78.28-.81.79h0c-.9,1.56-1.75.62-2.62-.04q-1.41-.69-1.54,0c-.37.09-.83-.1-1.09.35h0c-.36.09-.72.18-1.08.26,0,0,0,0,0,0-.1-.15-.2-.29-.31-.44-.31-.43-.49-1.24-1.21-.39h0c-.95-.27-1.9-.05-2.86-.07h0c-.4.02-.81.03-1.21.05-.45-.18-1,.55-1.39-.15-.21-.46-.72-.46-1.06-.71-.14-.2.02-.57-.36-.62-.43-.1-.85-.13-1.15.29-.7.31-.37.94-.37,1.41,0,.87-.54.77-1.08.75-.13-.12-.25-.25-.38-.37.05-1.03-.84-1.06-1.46-1.37h0c-.73-.07-1.48-.17-1.91.64h0c-.91.55-.61,1.44-.61,2.24h0c-.02.12-.04.24-.07.36-.12.02-.24.01-.36,0l-2.2-1q-1.19-.98-1.77-.44c0,.49.02.99.03,1.48l-.45.39h0c-.74.23-1.61-.65-2.27.27h0c-.21.04-.42.07-.63.11h0,0c-.39,0-.77,0-1.16-.01-1.68-.02.03.93-.28,1.3-.04.02-.08.05-.12.08-.35.16-.7.31-1.06.47-.52-.09-1.09-.17-1.31.43-.09.24.33.2.53.23.17.25.33.5.5.74.07.5-.28,1.07.25,1.49.03.59.06,1.19.1,1.78-.42.79-.76,1.58.25,2.21-.96.1-2.43-.66-2.28,1.35,0,.05-.41.13-.62.2-.36-.15-.73-.29-1.09-.44-.9.05-1.79-.07-2.83-.41.29.85.43,1.53.25,2.22-1.09.15-2.17.3-3.26.45-.83-.12-1.67-.23-1.45,1.07h0c-.03.11-.06.22-.08.33-.11.13-.23.25-.34.38-.27.14-1.02,0-.79.31,1,1.32-.61,2-.66,3.08-.04.84-1.6.54-2.07,1.39-.09.51.61.29.63.7,0,.27.01.54.02.81.32.55.45,1.14.27,1.77-.34.14-.93-.24-1,.41-.05.43.4.32.66.39.86.25,1.72.49,2.58.74.18.49-.45,1.44.77,1.35.1.05.21.08.32.1-.13.35-.25.7-.38,1.05h0c-.12.13-.24.25-.36.38-1.28-.2-1.04.73-1.08,1.45-1.19.39-2.73-.88-3.65.77-1.3-.3-1.87.72-2.6,1.44-.7-.15-.94.6-1.49.76-1.85.53-2.1,1.05-1.43,2.98.44.86-.45,1.2-.7,1.79-.5.22-.34.68-.41,1.07-.35.51,0,.65.4.76.92,1.16-.93.81-.83,1.52-.23.99-1.11,1.99.05,2.95.04.23.09.47.13.7-.07.09-.11.2-.11.32-.42.42-1.18.41-1.4,1.08-.15.37-.3.74-.45,1.1-.34.16-.31.47-.31.77h0c-.14,0-.28.01-.42.02-.24.14-.49.28-.73.43h0c-.23,0-.46,0-.69-.01-1.18.23-.87,1.52-1.51,2.14-.36.14-.92.18-.37.76.34.56-.37,1.7.69,1.75,1.5.06,1.45.76.84,1.64-.39.55.12.87.05,1.29-.71.71.4,1.04.34,1.61,0,0,0,0,0,0,0,0,0,0,0,0-1.66.82-2,2.02-.81,2.88.05.5.18.93.76,1.03.09.05.19.09.3.09.03-.02.06-.05.09-.07,0,0,0,0,0,.01,0,0-.09.05-.09.05.03.24.06.47.1.71-.05.11-.08.22-.08.34-.56.36-.39,1.45-1.37,1.4.03-.11,0-.2-.07-.27-.04-.96-.66-1.12-1.47-1.11-.88.01-.69.61-.68,1.12-.11.89-.71,1.51-1.22,2.17-.98-.65-1.25.26-1.71.78-.03.34-.06.68-.09,1.03-.58.03-1.23-.08-1.73.14-.33.15.17.18.29.28.03.12.06.25.09.37-.03.5-.22,1.1.66,1.03.4.75.79,1.52,1.83,1.47.35.03.7.06,1.05.08v1.07c-.68.21-.68.96-1.09,1.39-.48.55-.75,1.16-.66,1.91h0c-.59.84-.44,1.38.63,1.54.4.23.22.94.82,1,.53,1.59,1.74,2.02,3.26,1.92.36.25.72.49,1.08.74.08.07.17.1.26.09.99.47,1.1,1.96,2.34,2.14l-.06.99c-.63.34-.89,1.21-1.75,1.23-.25,0-.51,0-.76,0-.39-.01-.83-.22-1.11.25-.73.67-.49.54-.15,1.17.44.8,1.48.92,1.7,1.83.01.46.4.28.63.37-.07.87.3,1.23,1.17,1.01h0c-.02,1.86.42,2.46,1.32,1.8.83-.61,1.06-.56,1.5.28.12.23.76.18,1.17.25.14.22.28.45.41.67.03.74.81.36,1.08.73.06.39-.36.98.44,1.05h0l1.38-.35c.64,1.24.11,2.88,1.73,3.9.53.34,1.26-.32,1.75.66.28.56,2.02.67,3.12.15.36.17.73.33,1.09.5.13.54-.39,1.92,1.03.81.16.31-.3.73.09.93.14.07.48-.22.72-.35,1.32.38,2.72.58,3.92,1.18.84.42,1.22.43,1.6-.38.67-.49,1.31-.71,1.94.08.33.42.69.34,1.01-.05.23-.01.46-.03.7-.04.05.36-.69,1.45.21.91.96-.57,1.86-.29,2.73-.61.26.16,2.49.54,2.93.5.2.38.22,1.05.77.93.27-.05.43-.68.64-1.04.26-.78,1.26.06,1.53-.7.26-.02.36.16.44.37,1.26.62.91-.72,1.35-1.1,0,0,.02,0,.03,0,0,0,0-.02,0-.02.25-.01.5-.02.75-.03.08.07.17.1.28.1.51.64,1.23.98,1.93,1.35.5.07,1.12.07,1.27-.41.44-1.42,1.65-1.49,2.75-1.71.48-.1.79-.2.82-.72.35-.1.69-.24,1.05-.05.09.47-.21,1.34.7,1.1,1-.27,1.48.44,2.17.8.51,1.35,1.05.16,1.58.02.49,1.23,1.78.23,2.28.7,1.06,1.01,2.28.99,3.53,1.06.88.11.83,1.72,2.06,1.49,1.28-.24,2.46.36,3.72.41,1.12.05,1.83.96,1.79,2.12-.06,2.25.49,4.44.42,6.7-.11,3.4,0,9.37.03,12.77,0,5.87-.63,19.62-.63,25.49,0,1.35,0,2.7,0,4.05,0,.37,0,.74,0,1.1,0,.85,0,1.7,0,2.55-.13.58-.36,1.16-.36,1.74-.03,3.46,0,6.92,0,10.38,0,.49,0,.99,0,1.48-.04,1.22-.7,16.18-.73,17.4-.64,3.05-.84,18.55-.89,21.61,0,.61,0,1.23,0,1.84-.02,1.09-.04,2.18-.07,3.28-.03.02-.05.03-.08.05,0,.03,0,.07-.01.1,0,.06.02.12.02.18,0,.09,0,.19,0,.28.36,1.5.28,3.24.19,4.84.14.33.32.62.57.84,1.8.13,9.26.32,10.88-.47,0-.04,0-.09,0-.14,0-.8-.06-1.6-.13-2.39-.1-1.05-.16-2.09-.19-3.13-.16-.51-.06-1.06-.08-1.59.01-.01.03-.02.04-.04,0-.13,0-.26,0-.39-.04-.13-.06-.27-.04-.42.02-.15.04-.3.06-.44-.04-.07-.08-.14-.11-.21v-1.83c0-.25,0-.5,0-.75v-16.46c.01-14.14-1.86-49.9-1.85-64.03,0-.35.11-.75-.3-.97-.01-5.48-.03-13.53-.02-19.01,0-.28-.11-.66-.07-.96.02-.07.04-.15.06-.22.06-.12.17-.21.35-.26,1.19-.29.62-1.1.69-1.73.04-.42-.18-.8-.29-1.2,0-.17-.02-.34-.05-.51,0-.08.02-.16.06-.25,1.04.65,1.58-.19,2.2-.76.42-.15,1.17.26,1.24-.33.07-.58-.6-.36-.99-.33-.24-.09-.28-.53-.66-.39-1.43-.96-1.42-1.32.03-2.27l2.93.33c1.35.17,2.7.3,3.97-.37.05-.36.21-.93.56-.68.98.67-.55-.27.42.17.67.3,1.3-1.25,2.11-.16.09.65,1.44-.03,1.12,1.06-.34.43-.21.84.05,1.24h0c-.25.62-1.23,1.04-.92,1.7.35.75,1.26.4,1.96.31.44.56.88,1.18,1.45.11.45-.12,1.09.05,1.14-.71.11-.02.21-.06.31-.1.73.08,1.48-.78,2.18.07.4.91,1.23-.45,1.44.17.62,1.91,1.74.43,2.63.5l.18.04.18-.04c.15.16.46.34.43.48-.25,1.64.57,1.72,1.69,1.1.41-.23,1,.24,1.22-.4.05,0,.1-.02.15-.03.18-.03.35-.06.52-.1.08,0,.15,0,.2.04,1.06.71,1.57-.41,2.23-.55,1.64-.35.67-1.32.88-1.97.37-.84,1.09-.79,1.82-.7.45.67.92,1.31,1.89,1.01.44,0,.74.25,1.08.5.48.34.29-.22.4-.39.96-.3,1.93-.06,2.89-.01.03.52.2.91.8.91v-2.01l-.03-.03c.86-.35,1.71,1.21,2.58.02.37-.06.75-.12,1.12-.18.07.71.71.65,1.05.56.53-.14.3-.73.33-1.14.18-.56-.49-1.21.18-1.73.06.05.13.08.21.08h0c.02.8.19.93.79.58.76.03,1.31-.83,1.92-.72,2.55.47.99-1.09,1-1.88l1.06-.04c.82-.13.21-.78.42-1.14.51.09.67-.22.73-.65.43-.11,1.2.33,1.1-.67,1.64-.77,3.75-.04,5.13-1.61,1.1-1.51,2.86-2.73,2.23-5.02l.35-.1c.45-.18,1.13.53,1.31-.77.14-1.01.41-2.06.52-3.12.04-.46.11-.92.73-.45.48.58.61.24.76-.25.32-1.12-.77-2.64.96-3.36-.18-.15-.35-.3-.53-.46-.38-.49-.76-.98-1.14-1.47-.65-.67-.35-1.14.32-1.54.56.19,1.04.03,1.48-.33.25.02.5.04.74.07.98.26.99-1,1.73-1.11.44-.42-.41-1.4.25-1.37,1.01.05,1.51-.92,2.43-.83v-2.94c-1.5.21-1.39-1.35-2.14-1.96ZM15.11,94.07c-.32.02-.63-.09-.63-.29,0-.32.44-.39.86-.43.33-.03.55.05.65.18-.1.37-.43.51-.88.54Zm9.07,6.76c-.34.03-.58-.08-.63-.28-.05-.21.19-.32.51-.36.32.01.6.09.64.29.05.21-.21.32-.52.35Zm-2.01-5.82c-.12.06-.25.13-.38.19-.39.09-.07.7-.78.47-.71-.23-1.57-.56-.91-1.18.27-.26.62-.91,1.39-.21.1-.14.2-.28.3-.42-.14-.16-.39-.35-.02-.47.49-.16.89.09,1.3.21,1.69-.16,2,.71,2.8,1.34-1.32.17-2.52.1-3.71.07Zm7.25,7.44c-.33.07-.58,0-.68-.21-.08-.17.06-.28.33-.31.3-.03.59-.02.69.16.06.22-.11.31-.35.36Zm.09-.81c-.37.05-.32-.16-.33-.28-.02-.26.2-.4.63-.38.27,0,.4.12.43.28-.04.28-.4.34-.73.38Zm1.04-1.54c-.02.11-.28.26-.47.28-.42.05-.75-.12-.79-.35-.03-.16.21-.34.68-.34.31.03.64.14.58.41Zm1.33,2.57c-.55.22-.62-.29-.92-.47q-.44-.52,1.14-.51c.8.39.2.8-.22.97Zm3.41-1.31c.06-.14.18-.26.41-.25.32.06.51.17.4.31-.08.11-.32.23-.51.24-.26,0-.36-.16-.3-.3Zm.2,1.53c-.29,0-.65,0-.66-.25-.02-.29.38-.33.72-.39.36-.06.57.02.6.26.04.29-.24.39-.66.38Zm6.82.53c-.66.29-1.13-.26-1.79-.2.58-.29,1.21-.31,1.81-.18.24.06.17.29-.02.38Zm3.76-6.25c-.2-.03-.47-.18-.49-.28-.03-.2.2-.34.58-.3.28.03.36.17.4.32-.07.15-.24.3-.49.26Zm1.18-69.09c-.19-.13-.42-.1-.66-.09-.17,0-.4,0-.38-.18.01-.12.02-.29.19-.33.13-.02.4-.08.48.06.07.13.04.3.24.04.12-.15.27-.29.55-.15.11.06.28.15.19.26-.14.17-.29.34-.62.39Zm.89,73.83c-.3-.07-.44-.22-.37-.42.05-.15.18-.27.46-.19.28.08.43.22.4.41-.06.18-.26.25-.5.19Zm-1.32-86.07c-.39,0-.41.03-.37-.29.02-.12-.09-.16-.23-.16-.49.02-.68-.21-.96-.59,1.23.36,2.47.02,3.58.5-.67.3-1.27.52-2.01.54Zm2.74,15.31c-.39.03-.36-.13-.28-.31,0-.11-.14-.34.15-.32.31.02.58.22.61.44.01.12-.26.18-.48.2Zm2.88-.97c.15-.14.08-.37.38-.44.23,0,.28.13.3.22.03.24-.3.25-.52.32-.06.02-.27,0-.16-.1Zm-1.25-.2c-.27.1-.54.11-.66-.1-.3-.48.3-.69.77-1.1-.1.5.82.85-.11,1.19Zm.9,1.45c-.47-.03-.5-.38-.77-.74.51.09.99-.11,1.15.28.09.21-.11.48-.38.47Zm1.78.66c-.08.04-.13.11-.2.16h-1.12c.02-.12-.31-.19-.09-.32.23-.14.41-.02.58.09.19-.01.35-.05.43-.18.09-.13.25-.3.44-.2.2.1.21.31-.05.46Zm1.11,72.1c-.37-.01-.62-.13-.64-.32,0-.1.2-.27.38-.31.32-.08.58.05.66.24.09.21-.13.33-.41.39Zm.08-72.43c-.25-.02-.24-.15-.26-.28-.02-.16.17-.17.3-.17.2,0,.33.08.32.23-.01.16-.17.21-.37.22Zm2.31-16.64c0-.11.09-.24.24-.25.12,0,.25.11.35.15,0,.21-.23.14-.35.19-.15.07-.25.03-.24-.1Zm.72,1.09c-.54.2-.79-.14-.57-.29.29-.2.34-.87,1.2-.49.18.08.46.06.69.08v.11c-.27.13-.55.26-.83.39.15.18.62.1.5.38-.04.09-.09.19-.23.2-.25.01-.46-.06-.6-.21-.05-.06-.15-.17-.16-.17Zm.54,87.36c-.19-.12-.16-.29.05-.39.66-.34,1.19-.17,1.86.21-.82.22-1.3.56-1.9.18Zm3.91.43c-.61.31-1.07.13-1.52-.17.45-.33.96-.42,1.55-.18.25.1.19.24-.03.35Zm8.04,2.37c-.06.31-.1.68-.81.73-.41.03-.7-.09-.49-.38.19-.26-.17-.71.67-.76.43.02.67.17.63.42Zm2.7.72c-.3.04-.64.03-.72-.18-.12-.34.34-.42.74-.48.32-.05.56.04.65.27,0,.26-.32.34-.67.39Zm24.25-1.8c-.12.23-.37.29-.69.22-.38-.09-.57-.27-.48-.51.06-.16.34-.21.57-.16.34.07.65.19.6.45Zm1.33,1.58c-.39.05-.78,0-.88-.26-.13-.33.3-.45.73-.47.43-.03.86,0,1.06.32-.07.32-.51.36-.91.41Zm1.42-1.98c-.07-.49.58-.68,1.1-.69.9,0,.3.62.8.85-.08.36-.39.5-.94.48-.66-.02-.91-.26-.96-.64Zm2.05,2.66c-.41.15-.81.11-1.22-.13.45-.3.84-.3,1.24-.13.19.08.15.2-.02.26Zm.35-1.33c-.51.12-1.01.23-1.63.37.09-.51.84-.58,1.13-.88.3-.21.56-.05.71.08.19.16.18.34-.21.43Zm.84-.76c.12-.3.47-.42.92-.42.39,0,.47.19.4.38-.1.28-.39.46-.88.43-.35-.02-.45-.2-.45-.4Zm1.31,1.88c-.43.35-.79.07-.94-.11-.14-.17.2-.3.52-.32.37-.19.79-.58,1.2-.09.39.46-.28.48-.78.52Zm4.28-1.38c-.32-.04-.49-.21-.53-.41-.04-.21.23-.22.47-.24.21.12.57.16.54.41-.02.19-.23.28-.48.24Zm4.53-4.8c-.02.23-.28.39-.71.36-.26-.02-.45-.11-.43-.28.03-.23.2-.4.6-.46.31.06.56.2.54.38Zm-1.49-.97c.05-.21.3-.32.63-.31.46.01.56.23.55.46,0,.22-.23.32-.58.31-.36-.07-.64-.2-.59-.46Zm.84,5.78c-.33-.01-.62-.1-.64-.31-.03-.26.27-.39.68-.4.4,0,.67.13.79.37-.16.21-.4.35-.83.33Zm1.09-3.08c-.43-.02-.71-.07-.78-.28-.07-.21.22-.23.43-.25.41-.03.69.11.75.35.01.05-.31.14-.4.18Zm3.45-42.37c.26-.01.52,0,.64.17-.04.17-.3.19-.55.22-.24.03-.47,0-.53-.13-.08-.17.18-.23.44-.25Zm-2.07,40.07c-.17-.03-.32-.13-.28-.3.05-.16.24-.24.5-.21.25.03.42.13.36.3-.06.15-.22.24-.58.21Zm2.71,3.81c-.4.03-.69-.1-.86-.32.04-.21.25-.34.56-.36.4-.03.74.09.83.32.08.21-.21.34-.53.36Zm-.48-2.3l-.45.25c.11.37.02.69-.72.68-.68,0-.9-.28-.76-.67.11-.03.22-.06.33-.08.63-.22.66-.75,1.2-1.02.75-.13,1.57-.11,1.7.4.12.5-.78.37-1.3.44Zm1.79-42.37c-.04.16-.28.22-.56.21-.23,0-.48-.06-.43-.2.06-.17.39-.21.65-.27.3.02.37.13.34.25Zm2.41,1.17c-.02.14-.17.21-.42.21-.24,0-.45-.07-.43-.19.02-.12.24-.19.48-.18.2,0,.34.05.36.17Zm-.21,36.52c-.01.19-.24.24-.48.22-.19-.01-.54.02-.45-.19.05-.11.28-.24.47-.27.22-.04.45.05.45.23Zm-.73-37.49c.25-.02.31.07.3.18-.02.16-.22.23-.49.26-.23,0-.32-.09-.31-.19,0-.17.24-.23.51-.25Zm-.63,42.38c-.2-.28.08-.44.46-.44,1.04,0,.55.61.82.91.19.22-.02.55-.59.5-1.04-.08-.27-.69-.69-.98Zm.61,2.5c.06,0-.26-.11-.21-.37.04-.2.34-.29.68-.3.41,0,.82.14.82.35,0,.2-.4.36-1.29.32Zm.76-3.04c-.39,0-.76-.06-.81-.33-.04-.28.33-.37.7-.38.45,0,.82.1.91.41-.06.31-.46.29-.81.3Zm.85-3.32c-.03-.16.23-.33.57-.36.54-.04.7.21.9.44.1.29-.27.25-.53.27-.46.03-.89-.05-.95-.36Zm1.91,4.11c-.72.31-1.18-.01-1.77-.35.73-.28,1.31-.49,1.83-.03.09.08.06.33-.06.38Zm1.37-42.33c.04-.14.25-.18.49-.15.18.02.31.08.35.18-.1.12-.27.17-.52.16-.2-.01-.35-.08-.32-.18Zm.85,42.43c-.36-.01-.77-.02-.83-.3-.06-.31.25-.47.73-.48.43-.01.94.03.97.34.03.28-.45.38-.87.44Zm.9-44.27c-.25.03-.41-.06-.47-.18-.06-.11.08-.18.27-.2.27-.04.39.05.47.17.01.11-.11.19-.28.21Zm.78.49c-.3,0-.5-.09-.48-.25.02-.16.31-.13.51-.16.24,0,.44.05.41.2-.02.14-.19.2-.44.2Zm1-.51c-.3.01-.63,0-.65-.22-.02-.16.18-.24.49-.25.34,0,.54.1.69.22,0,.21-.29.23-.53.24Zm1.51-2.43c.04-.1.18-.17.38-.16.27.01.35.12.35.24,0,.12-.16.15-.37.15-.21-.04-.42-.09-.37-.23Zm.55,3.87c-.26.03-.46-.04-.49-.16-.02-.09.13-.17.35-.18.25,0,.42.06.54.17-.08.09-.21.15-.4.17Zm0-1.62c-.2,0-.39-.07-.38-.16,0-.14.25-.17.48-.17.21.03.45.06.42.21-.04.17-.31.12-.51.12Zm.8-1.88c.51-.12.6.1.74.28-.36.07-.72.14-.92-.1-.03-.04.08-.16.18-.18Zm.91,2.33c-.42.12-.67-.05-1.02-.19.41-.15.73-.25,1.06-.06.13.08.15.19-.04.25Zm1.36.03c-.23,0-.48-.03-.47-.18,0-.16.23-.23.53-.22.23.01.44.04.52.18-.09.14-.3.21-.58.22Z"/></g></svg>